<svg width="18" height="18" viewBox="0 0 18 18" fill="none" xmlns="http://www.w3.org/2000/svg">
<path d="M15 5.38785C12.78 5.18988 10.5467 5.08789 8.32 5.08789C7 5.08789 5.68 5.14788 4.36 5.26787L3 5.38785" stroke="#999999" stroke-width="1.5" stroke-linecap="round" stroke-linejoin="round"/>
<path d="M6.6665 4.78177L6.81317 3.99587C6.91984 3.42594 6.99984 3 8.1265 3H9.87317C10.9998 3 11.0865 3.44994 11.1865 4.00187L11.3332 4.78177" stroke="#999999" stroke-width="1.5" stroke-linecap="round" stroke-linejoin="round"/>
<path d="M13.5667 7.28516L13.1333 13.3264C13.06 14.2682 13 15.0001 11.14 15.0001H6.86002C5.00002 15.0001 4.94002 14.2682 4.86668 13.3264L4.43335 7.28516" stroke="#999999" stroke-width="1.5" stroke-linecap="round" stroke-linejoin="round"/>
<path d="M7.88696 11.6973H10.107" stroke="#999999" stroke-width="1.5" stroke-linecap="round" stroke-linejoin="round"/>
<path d="M7.33362 9.29883H10.667" stroke="#999999" stroke-width="1.5" stroke-linecap="round" stroke-linejoin="round"/>
</svg>
