<svg width="18" height="18" viewBox="0 0 18 18" fill="none" xmlns="http://www.w3.org/2000/svg">
<path d="M4.57581 9C4.57581 8.17172 4.77783 7.41667 5.18186 6.73485C5.5859 6.05303 6.12882 5.5101 6.81063 5.10606C7.49244 4.70202 8.24748 4.5 9.07576 4.5C9.79292 4.5 10.4545 4.65404 11.0606 4.96212C11.6717 5.2702 12.1767 5.69192 12.5757 6.22727C12.9747 6.75758 13.2222 7.35859 13.3181 8.0303H11.4848C11.3838 7.5101 11.1035 7.08586 10.6439 6.75758C10.1843 6.42424 9.66161 6.25758 9.07576 6.25758C8.57071 6.25758 8.11112 6.38131 7.69698 6.62879C7.28285 6.87626 6.95204 7.20707 6.70457 7.62121C6.4571 8.03535 6.33336 8.49495 6.33336 9C6.33336 9.50505 6.4571 9.96465 6.70457 10.3788C6.95204 10.7929 7.28285 11.1237 7.69698 11.3712C8.11112 11.6187 8.57071 11.7424 9.07576 11.7424C9.66161 11.7424 10.1566 11.5783 10.5606 11.25C10.9697 10.9167 11.2272 10.4899 11.3333 9.9697H13.1666C13.0707 10.6414 12.8358 11.2449 12.4621 11.7803C12.0883 12.3106 11.6086 12.7298 11.0227 13.0379C10.4419 13.346 9.79292 13.5 9.07576 13.5C8.24748 13.5 7.49244 13.298 6.81063 12.8939C6.12882 12.4899 5.5859 11.947 5.18186 11.2652C4.77783 10.5833 4.57581 9.82828 4.57581 9ZM9 17C7.899 17 6.86366 16.7929 5.89397 16.3788C4.92934 15.9646 4.07834 15.3914 3.34097 14.6591C2.60866 13.9217 2.03291 13.0707 1.61372 12.1061C1.19958 11.1414 0.995041 10.1061 1.00009 9C1.00514 7.89394 1.21474 6.85859 1.62887 5.89394C2.04806 4.92929 2.62381 4.08081 3.35612 3.34849C4.08844 2.61111 4.93691 2.03535 5.90155 1.62121C6.86619 1.20707 7.899 1 9 1C10.106 1 11.1414 1.20707 12.106 1.62121C13.0757 2.03535 13.9242 2.61111 14.6515 3.34849C15.3838 4.08081 15.957 4.92929 16.3711 5.89394C16.7853 6.85859 16.9949 7.89394 16.9999 9C17.005 10.1061 16.8004 11.1414 16.3863 12.1061C15.9721 13.0707 15.3989 13.9217 14.6666 14.6591C13.9343 15.3914 13.0833 15.9646 12.1136 16.3788C11.1439 16.7929 10.106 17 9 17ZM9 15.2424C9.86363 15.2424 10.6742 15.0808 11.4318 14.7576C12.1894 14.4343 12.8535 13.9874 13.4242 13.4167C13.9949 12.846 14.4419 12.1843 14.7651 11.4318C15.0883 10.6742 15.2474 9.86616 15.2424 9.00758C15.2373 8.14394 15.0732 7.33333 14.7499 6.57576C14.4267 5.81818 13.9797 5.15404 13.409 4.58333C12.8383 4.01263 12.1767 3.56566 11.4242 3.24242C10.6717 2.91919 9.86363 2.75758 9 2.75758C8.14142 2.75758 7.33588 2.91919 6.58336 3.24242C5.83084 3.56566 5.16924 4.01515 4.59853 4.59091C4.02783 5.16162 3.57834 5.82576 3.25007 6.58333C2.92684 7.33586 2.7627 8.14394 2.75765 9.00758C2.7526 9.86111 2.91169 10.6667 3.23491 11.4242C3.55814 12.1768 4.00511 12.8384 4.57581 13.4091C5.15156 13.9798 5.81569 14.4293 6.56821 14.7576C7.32578 15.0808 8.13637 15.2424 9 15.2424Z" fill="#999999"/>
</svg>
