<svg width="21" height="13" viewBox="0 0 21 13" fill="none" xmlns="http://www.w3.org/2000/svg">
<path d="M8.03562 11.578L8.02662 13H0.0796173V0.102999H8.02662V1.525H1.82562V5.809H6.84762V7.177H1.82562V11.578H8.03562ZM20.9173 0.102999V13H20.0443C19.9063 13 19.7893 12.976 19.6933 12.928C19.6033 12.88 19.5133 12.799 19.4233 12.685L11.9623 2.965C11.9743 3.115 11.9833 3.262 11.9893 3.406C11.9953 3.55 11.9983 3.685 11.9983 3.811V13H10.4683V0.102999H11.3683C11.4463 0.102999 11.5123 0.108999 11.5663 0.120999C11.6203 0.126999 11.6683 0.141999 11.7103 0.165999C11.7523 0.183999 11.7943 0.213999 11.8363 0.256C11.8783 0.291999 11.9233 0.339999 11.9713 0.399999L19.4323 10.111C19.4203 9.955 19.4083 9.805 19.3963 9.661C19.3903 9.511 19.3873 9.37 19.3873 9.238V0.102999H20.9173Z" fill="#090909"/>
</svg>
