<svg width="24" height="24" viewBox="0 0 24 24" fill="none" xmlns="http://www.w3.org/2000/svg">
<path d="M4.57143 7.57143H19.4286C19.7442 7.57143 20 7.31561 20 7V5.57143C20 5.25582 19.7442 5 19.4286 5H4.57143C4.25582 5 4 5.25582 4 5.57143V7C4 7.31561 4.25582 7.57143 4.57143 7.57143ZM4.57143 13.2857H19.4286C19.7442 13.2857 20 13.0299 20 12.7143V11.2857C20 10.9701 19.7442 10.7143 19.4286 10.7143H4.57143C4.25582 10.7143 4 10.9701 4 11.2857V12.7143C4 13.0299 4.25582 13.2857 4.57143 13.2857ZM4.57143 19H19.4286C19.7442 19 20 18.7442 20 18.4286V17C20 16.6844 19.7442 16.4286 19.4286 16.4286H4.57143C4.25582 16.4286 4 16.6844 4 17V18.4286C4 18.7442 4.25582 19 4.57143 19Z" fill="#272020"/>
</svg>
