<svg width="27" height="15" viewBox="0 0 27 15" fill="none" xmlns="http://www.w3.org/2000/svg">
<path d="M6.822 14.216C5.838 14.216 4.974 14.09 4.23 13.838C3.486 13.586 2.904 13.178 2.484 12.614C2.076 12.05 1.872 11.312 1.872 10.4V2.498C1.872 2.198 1.8 1.946 1.656 1.742C1.524 1.538 1.176 1.436 0.612 1.436C0.444 1.436 0.36 1.346 0.36 1.166C0.36 1.01 0.444 0.932 0.612 0.932C0.708 0.932 0.912 0.938 1.224 0.95C1.548 0.95 2.028 0.95 2.664 0.95C3.096 0.95 3.51 0.95 3.906 0.95C4.302 0.938 4.638 0.932 4.914 0.932C5.19 0.932 5.358 0.932 5.418 0.932C5.574 0.932 5.652 1.01 5.652 1.166C5.652 1.346 5.574 1.436 5.418 1.436C4.83 1.436 4.452 1.544 4.284 1.76C4.128 1.964 4.05 2.21 4.05 2.498V9.824C4.05 10.508 4.122 11.108 4.266 11.624C4.422 12.128 4.71 12.524 5.13 12.812C5.562 13.1 6.18 13.244 6.984 13.244C7.728 13.244 8.334 13.124 8.802 12.884C9.282 12.644 9.654 12.32 9.918 11.912C10.182 11.504 10.362 11.042 10.458 10.526C10.566 9.998 10.62 9.446 10.62 8.87V3.758C10.62 3.314 10.572 2.918 10.476 2.57C10.38 2.222 10.206 1.946 9.954 1.742C9.714 1.538 9.354 1.436 8.874 1.436C8.694 1.436 8.604 1.346 8.604 1.166C8.604 1.01 8.694 0.932 8.874 0.932C8.982 0.932 9.222 0.938 9.594 0.95C9.978 0.95 10.446 0.95 10.998 0.95C11.49 0.95 11.916 0.95 12.276 0.95C12.648 0.938 12.894 0.932 13.014 0.932C13.194 0.932 13.284 1.01 13.284 1.166C13.284 1.346 13.194 1.436 13.014 1.436C12.702 1.436 12.414 1.508 12.15 1.652C11.898 1.784 11.694 2.018 11.538 2.354C11.382 2.69 11.304 3.164 11.304 3.776V9.266C11.304 10.238 11.16 11.096 10.872 11.84C10.584 12.584 10.11 13.166 9.45 13.586C8.802 14.006 7.926 14.216 6.822 14.216ZM13.1088 14C12.9528 14 12.8748 13.922 12.8748 13.766C12.8748 13.574 12.9528 13.478 13.1088 13.478C13.5288 13.478 13.8588 13.406 14.0988 13.262C14.3388 13.106 14.5548 12.818 14.7468 12.398C14.8428 12.206 14.9808 11.882 15.1608 11.426C15.3528 10.97 15.5688 10.424 15.8088 9.788C16.0608 9.152 16.3248 8.474 16.6008 7.754C16.8768 7.034 17.1528 6.314 17.4288 5.594C17.7048 4.874 17.9568 4.208 18.1848 3.596C18.4248 2.972 18.6228 2.438 18.7788 1.994C18.9468 1.55 19.0608 1.25 19.1208 1.094C19.1808 0.938 19.2468 0.836 19.3188 0.788C19.4028 0.739999 19.5408 0.715999 19.7328 0.715999C19.9248 0.715999 20.0628 0.739999 20.1468 0.788C20.2308 0.836 20.3028 0.938 20.3628 1.094C20.4588 1.334 20.6088 1.724 20.8128 2.264C21.0288 2.804 21.2748 3.428 21.5508 4.136C21.8268 4.844 22.1148 5.588 22.4148 6.368C22.7148 7.136 23.0028 7.886 23.2788 8.618C23.5668 9.35 23.8248 10.016 24.0528 10.616C24.2808 11.204 24.4608 11.66 24.5928 11.984C24.8088 12.536 25.0368 12.926 25.2768 13.154C25.5288 13.37 25.7688 13.478 25.9968 13.478C26.1528 13.478 26.2308 13.574 26.2308 13.766C26.2308 13.922 26.1528 14 25.9968 14C25.8768 14 25.6308 14 25.2588 14C24.8868 13.988 24.3888 13.982 23.7648 13.982C23.2488 13.982 22.7568 13.988 22.2888 14C21.8208 14 21.5268 14 21.4068 14C21.2508 14 21.1728 13.922 21.1728 13.766C21.1728 13.574 21.2508 13.478 21.4068 13.478C21.7908 13.478 22.0548 13.418 22.1988 13.298C22.3548 13.166 22.4328 13.016 22.4328 12.848C22.4328 12.668 22.4028 12.518 22.3428 12.398C22.3308 12.374 22.2948 12.272 22.2348 12.092C22.1748 11.9 22.0968 11.672 22.0008 11.408C21.9168 11.132 21.8268 10.856 21.7308 10.58C21.6348 10.292 21.5508 10.04 21.4788 9.824C21.4308 9.692 21.3828 9.614 21.3348 9.59C21.2868 9.566 21.2208 9.554 21.1368 9.554H16.7088C16.6488 9.554 16.6008 9.56 16.5648 9.572C16.5288 9.584 16.4988 9.632 16.4748 9.716C16.4148 9.968 16.3248 10.268 16.2048 10.616C16.0968 10.952 16.0008 11.282 15.9168 11.606C15.8328 11.918 15.7908 12.176 15.7908 12.38C15.7908 12.824 15.8988 13.118 16.1148 13.262C16.3428 13.406 16.6548 13.478 17.0508 13.478C17.2068 13.478 17.2848 13.574 17.2848 13.766C17.2848 13.922 17.2068 14 17.0508 14C16.9308 14 16.7028 14 16.3668 14C16.0428 13.988 15.6168 13.982 15.0888 13.982C14.6208 13.982 14.2068 13.988 13.8468 14C13.4868 14 13.2408 14 13.1088 14ZM16.9788 8.96H20.8848C20.9328 8.96 20.9808 8.954 21.0288 8.942C21.0888 8.918 21.1008 8.846 21.0648 8.726C20.9688 8.438 20.8488 8.09 20.7048 7.682C20.5608 7.262 20.4048 6.824 20.2368 6.368C20.0688 5.912 19.9068 5.474 19.7508 5.054C19.6068 4.634 19.4748 4.268 19.3548 3.956C19.2468 3.644 19.1748 3.434 19.1388 3.326C19.1148 3.266 19.0788 3.23 19.0308 3.218C18.9948 3.206 18.9648 3.23 18.9408 3.29C18.9168 3.374 18.8388 3.584 18.7068 3.92C18.5748 4.244 18.4128 4.64 18.2208 5.108C18.0408 5.564 17.8548 6.038 17.6628 6.53C17.4708 7.01 17.2968 7.448 17.1408 7.844C16.9968 8.228 16.8948 8.51 16.8348 8.69C16.7868 8.87 16.8348 8.96 16.9788 8.96Z" fill="#272020"/>
</svg>
