<svg width="109" height="32" viewBox="0 0 109 32" fill="none" xmlns="http://www.w3.org/2000/svg">
<path d="M8.8 31.68C8.10667 31.68 7.50667 31.4133 7 30.88C6.52 30.3467 6.25333 29.6933 6.2 28.92C6.04 27.8 5.93333 26 5.88 23.52L5.8 21.04C5.8 20.3467 5.58667 19.68 5.16 19.04C4.73333 18.3733 4.18667 17.9867 3.52 17.88C3.70667 23.4267 3.8 27.5333 3.8 30.2C3.8 30.9467 3.53333 31.32 3 31.32C2.78667 31.32 2.57333 31.2667 2.36 31.16C1.85333 30.92 1.64 30.5333 1.72 30C1.93333 28.4267 2.04 26.8667 2.04 25.32C2.04 24.2 2 23.0267 1.92 21.8C1.89333 21.2133 1.88 20.32 1.88 19.12C1.85333 18.7467 1.84 18.16 1.84 17.36C1.73333 12.9867 1.61333 9.69333 1.48 7.48C1.4 6.14667 1.2 4.44 0.88 2.36C0.853333 2.25333 0.84 2.09333 0.84 1.88C0.84 1.05333 1.18667 0.573331 1.88 0.439998C2.28 0.359999 2.6 0.479999 2.84 0.799998C3.10667 1.09333 3.25333 1.48 3.28 1.96C3.30667 2.30666 3.33333 2.72 3.36 3.2C3.38667 3.65333 3.4 4.01333 3.4 4.28L3.44 5.6C3.49333 7.14667 3.52 8.28 3.52 9V16.12C3.76 15.56 4.05333 14.6933 4.4 13.52C4.74667 12.3467 5.01333 11.3467 5.2 10.52C5.28 10.0933 5.36 9.57333 5.44 8.96C5.54667 8.34667 5.62667 7.88 5.68 7.56C5.86667 5.85333 6.10667 4.48 6.4 3.44C6.74667 2.21333 7.4 1.32 8.36 0.759998C8.76 0.519998 9.09333 0.399998 9.36 0.399998C9.54667 0.399998 9.8 0.466665 10.12 0.599998C10.5467 0.786665 10.76 1.18667 10.76 1.8C10.76 2.25333 10.48 2.54667 9.92 2.68C8.85333 2.86667 8.16 3.57333 7.84 4.8C7.65333 5.54667 7.48 6.36 7.32 7.24C7.13333 8.41333 6.97333 9.17333 6.84 9.52C6.38667 10.9067 6.13333 12.0267 6.08 12.88C6 13.6 5.88 14.24 5.72 14.8C5.56 15.3333 5.30667 15.7867 4.96 16.16C5.62667 16.2667 6.2 16.7333 6.68 17.56C7.16 18.3867 7.46667 19.4667 7.6 20.8C7.70667 21.7333 7.88 23.76 8.12 26.88L8.2 27.76C8.28 28.4267 8.6 28.8 9.16 28.88C9.58667 29.0133 9.89333 29.1867 10.08 29.4C10.2667 29.5867 10.36 29.8533 10.36 30.2C10.36 30.6267 10.2133 30.9733 9.92 31.24C9.62667 31.5333 9.25333 31.68 8.8 31.68ZM16.2097 31.32C14.983 31.32 14.3697 30.9867 14.3697 30.32L14.4497 25.4L14.5297 20.48C14.5297 18.6933 14.4897 15.9867 14.4097 12.36C14.3297 8.76 14.2897 6.05333 14.2897 4.24V4C14.2897 3.30667 14.3564 2.66667 14.4897 2.08C14.6497 1.36 15.0764 0.999998 15.7697 0.999998C17.6364 0.999998 19.1164 1.6 20.2097 2.8C21.303 4 21.8497 5.58667 21.8497 7.56C21.8497 8.76 21.5297 10.0133 20.8897 11.32C20.2497 12.6267 19.4897 13.6 18.6097 14.24C20.1564 15.28 21.2897 16.6267 22.0097 18.28C22.7564 19.9067 23.1297 21.7067 23.1297 23.68C23.1297 24.6133 22.8097 25.7733 22.1697 27.16C21.3964 28.8133 20.343 30 19.0097 30.72C18.2097 31.12 17.3297 31.32 16.3697 31.32H16.2097ZM16.6097 13.64C17.303 13.48 17.8897 12.9067 18.3697 11.92C18.7697 11.1733 19.143 10.2667 19.4897 9.2C19.5697 8.90667 19.703 8.53333 19.8897 8.08V6.68C19.8897 5.88 19.5964 5.10667 19.0097 4.36C18.423 3.61333 17.7564 3.24 17.0097 3.24C16.6364 3.24 16.4497 3.65333 16.4497 4.48C16.4497 6.24 16.4764 7.81333 16.5297 9.2L16.6097 13.64ZM16.7697 29.24C18.0764 29.0533 19.1164 28.4533 19.8897 27.44C20.663 26.4267 21.0497 25.2133 21.0497 23.8C21.0497 22.5733 20.943 21.4533 20.7297 20.44C20.543 19.4 20.2897 18.6133 19.9697 18.08C19.6764 17.5733 19.383 17.1467 19.0897 16.8C18.7964 16.4533 18.543 16.2267 18.3297 16.12L18.0097 16H16.5697C16.703 19.0667 16.7697 23.48 16.7697 29.24ZM29.4278 30.96C27.1345 30.96 25.9878 30.56 25.9878 29.76C25.9878 29.12 26.3878 28.8 27.1878 28.8H27.6678C27.7745 28.8267 27.8945 28.84 28.0278 28.84C28.2411 28.84 28.3878 28.7733 28.4678 28.64C28.5745 28.5067 28.6278 28.2667 28.6278 27.92C28.6278 25.6533 28.4945 22.56 28.2278 18.64C27.9878 14.56 27.8678 11.48 27.8678 9.4C27.8678 8.65333 27.8811 7.97333 27.9078 7.36L27.9478 5.32C27.9478 4.44 27.9078 3.70667 27.8278 3.12C27.5345 3.22667 27.2278 3.28 26.9078 3.28C26.2945 3.28 25.9878 2.96 25.9878 2.32C25.9878 2 26.1745 1.72 26.5478 1.48C26.9478 1.24 27.4545 1.06667 28.0678 0.959998C29.1878 0.773332 30.1345 0.679999 30.9078 0.679999C31.2278 0.679999 31.4945 0.786665 31.7078 0.999998C31.9478 1.21333 32.0678 1.46667 32.0678 1.76C32.0678 2.05333 31.9745 2.30667 31.7878 2.52C31.6278 2.73333 31.4145 2.84 31.1478 2.84C30.9878 2.84 30.8545 2.82666 30.7478 2.8H30.4278C30.1611 2.8 29.9611 2.86666 29.8278 3C29.7211 3.10666 29.6678 3.32 29.6678 3.64C29.6678 6.46667 29.8411 10.36 30.1878 15.32C30.5078 20.52 30.6678 24.4267 30.6678 27.04V28.56C30.8545 28.5333 31.1211 28.52 31.4678 28.52C32.5878 28.52 33.1478 28.9867 33.1478 29.92V30.16L32.1478 30.84C32.1211 30.84 32.0411 30.8533 31.9078 30.88C31.7745 30.88 31.5078 30.88 31.1078 30.88C30.2011 30.9333 29.6411 30.96 29.4278 30.96ZM40.1813 31.28C39.7813 31.28 39.4613 31.0933 39.2213 30.72C39.0079 30.32 38.9013 29.84 38.9013 29.28C38.9013 28.4 38.9546 27.32 39.0613 26.04L39.1413 25L39.2213 22.88C39.2213 21.9467 39.1279 19.8667 38.9413 16.64C38.7546 13.4133 38.6613 11.3333 38.6613 10.4C38.6613 10.32 38.6613 10.1733 38.6613 9.96C38.6879 9.72 38.7013 9.36 38.7013 8.88C38.7279 8.34667 38.7413 7.69333 38.7413 6.92C38.7413 4.97333 38.6079 3.73333 38.3413 3.2C38.1813 3.2 37.8346 3.24 37.3013 3.32L36.1813 3.4C35.8346 3.4 35.5279 3.30666 35.2613 3.12C34.9946 2.90667 34.8613 2.64 34.8613 2.32C34.8613 2 35.1813 1.72 35.8213 1.48C36.7546 1.16 38.3413 0.933331 40.5813 0.799998C41.4879 0.746665 42.0346 0.719999 42.2213 0.719999C42.5413 0.719999 42.8346 0.826666 43.1013 1.04C43.3679 1.25333 43.5013 1.52 43.5013 1.84C43.5013 2.16 43.3813 2.42667 43.1413 2.64C42.9279 2.82667 42.6479 2.92 42.3013 2.92L41.5813 2.88C41.3679 2.85333 41.1279 2.84 40.8613 2.84H40.4613C40.6479 4.65333 40.7413 6.29333 40.7413 7.76L40.7013 10.32C40.6746 11.0933 40.6612 11.96 40.6612 12.92C40.6612 14.2 40.7146 15.7333 40.8213 17.52C40.9546 19.7333 41.0213 21.2667 41.0213 22.12C41.0213 23.1333 41.0746 24.3333 41.1813 25.72C41.2879 27.1333 41.3413 28.3333 41.3413 29.32C41.3413 30.6267 40.9546 31.28 40.1813 31.28ZM55.05 31.68C54.3567 31.68 53.7567 31.4133 53.25 30.88C52.77 30.3467 52.5033 29.6933 52.45 28.92C52.29 27.8 52.1833 26 52.13 23.52L52.05 21.04C52.05 20.3467 51.8367 19.68 51.41 19.04C50.9833 18.3733 50.4367 17.9867 49.77 17.88C49.9567 23.4267 50.05 27.5333 50.05 30.2C50.05 30.9467 49.7833 31.32 49.25 31.32C49.0367 31.32 48.8233 31.2667 48.61 31.16C48.1033 30.92 47.89 30.5333 47.97 30C48.1833 28.4267 48.29 26.8667 48.29 25.32C48.29 24.2 48.25 23.0267 48.17 21.8C48.1433 21.2133 48.13 20.32 48.13 19.12C48.1033 18.7467 48.09 18.16 48.09 17.36C47.9833 12.9867 47.8633 9.69333 47.73 7.48C47.65 6.14667 47.45 4.44 47.13 2.36C47.1033 2.25333 47.09 2.09333 47.09 1.88C47.09 1.05333 47.4367 0.573331 48.13 0.439998C48.53 0.359999 48.85 0.479999 49.09 0.799998C49.3567 1.09333 49.5033 1.48 49.53 1.96C49.5567 2.30666 49.5833 2.72 49.61 3.2C49.6367 3.65333 49.65 4.01333 49.65 4.28L49.69 5.6C49.7433 7.14667 49.77 8.28 49.77 9V16.12C50.01 15.56 50.3033 14.6933 50.65 13.52C50.9967 12.3467 51.2633 11.3467 51.45 10.52C51.53 10.0933 51.61 9.57333 51.69 8.96C51.7967 8.34667 51.8767 7.88 51.93 7.56C52.1167 5.85333 52.3567 4.48 52.65 3.44C52.9967 2.21333 53.65 1.32 54.61 0.759998C55.01 0.519998 55.3433 0.399998 55.61 0.399998C55.7967 0.399998 56.05 0.466665 56.37 0.599998C56.7967 0.786665 57.01 1.18667 57.01 1.8C57.01 2.25333 56.73 2.54667 56.17 2.68C55.1033 2.86667 54.41 3.57333 54.09 4.8C53.9033 5.54667 53.73 6.36 53.57 7.24C53.3833 8.41333 53.2233 9.17333 53.09 9.52C52.6367 10.9067 52.3833 12.0267 52.33 12.88C52.25 13.6 52.13 14.24 51.97 14.8C51.81 15.3333 51.5567 15.7867 51.21 16.16C51.8767 16.2667 52.45 16.7333 52.93 17.56C53.41 18.3867 53.7167 19.4667 53.85 20.8C53.9567 21.7333 54.13 23.76 54.37 26.88L54.45 27.76C54.53 28.4267 54.85 28.8 55.41 28.88C55.8367 29.0133 56.1433 29.1867 56.33 29.4C56.5167 29.5867 56.61 29.8533 56.61 30.2C56.61 30.6267 56.4633 30.9733 56.17 31.24C55.8767 31.5333 55.5033 31.68 55.05 31.68ZM68.4997 31C68.073 31 67.753 30.92 67.5397 30.76C67.353 30.6 67.2597 30.3333 67.2597 29.96V24.72C66.913 24.48 66.2597 24.2667 65.2997 24.08C64.3397 23.8933 63.433 23.7733 62.5797 23.72C62.2864 24.28 62.073 24.96 61.9397 25.76L61.7797 26.56C61.753 26.7467 61.673 27.16 61.5397 27.8C61.4064 28.44 61.2597 29 61.0997 29.48C60.9397 29.9333 60.7797 30.2933 60.6197 30.56C59.6064 30.56 59.0197 30.2933 58.8597 29.76C59.153 29.3333 59.4864 28.08 59.8597 26L61.1797 18.68C61.7664 15.2133 62.2997 12.2533 62.7797 9.8C63.2864 7.34667 63.8197 5.29333 64.3797 3.64C64.993 1.8 65.5797 0.879999 66.1397 0.879999C66.6997 0.879999 67.1264 0.986665 67.4197 1.2C67.4197 2.26666 67.673 4.84 68.1797 8.92C68.713 12.92 68.9797 15.6533 68.9797 17.12C68.9797 18.5333 69.1264 20.56 69.4197 23.2C69.6864 25.8933 69.8197 28.04 69.8197 29.64C69.8197 30.5467 69.3797 31 68.4997 31ZM66.4197 22.4C66.633 22.4 66.8997 22.36 67.2197 22.28C67.1397 21.1067 67.0064 19.6533 66.8197 17.92C66.2064 11.8933 65.8997 8.2 65.8997 6.84V6.52C65.633 6.78666 65.2597 8 64.7797 10.16C64.3264 12.2933 63.8997 14.5867 63.4997 17.04C63.0997 19.4933 62.8864 21.12 62.8597 21.92C63.9797 22.24 65.1664 22.4 66.4197 22.4ZM75.9241 31.2C75.6307 31.2 75.3907 31.08 75.2041 30.84C75.0441 30.5733 74.9641 30.2533 74.9641 29.88L75.0441 23.16C75.1241 19.9067 75.1641 17.3867 75.1641 15.6C75.1641 9.38667 74.8174 4.62667 74.1241 1.32C74.5241 0.706665 75.0307 0.399998 75.6441 0.399998C76.6307 0.399998 77.5241 0.626665 78.3241 1.08C79.1507 1.50666 79.8307 2.09333 80.3641 2.84C81.4041 4.38667 81.9241 6.12 81.9241 8.04C81.9241 10.04 81.4974 11.8267 80.6441 13.4C79.7907 14.9733 78.5507 16.2 76.9241 17.08L77.0041 21.12L77.0841 23.24C77.1107 23.6933 77.1241 24.3467 77.1241 25.2C77.2041 26.9867 77.2441 28.44 77.2441 29.56C77.2441 30.0667 77.1374 30.4667 76.9241 30.76C76.7107 31.0533 76.3774 31.2 75.9241 31.2ZM76.8441 15.16C77.8841 14.1733 78.6441 13.1467 79.1241 12.08C79.6307 10.9867 79.8841 9.76 79.8841 8.4V8.36C79.8841 7.74666 79.8174 6.97333 79.6841 6.04C79.6041 5.72 79.4574 5.4 79.2441 5.08C79.0307 4.76 78.9107 4.57333 78.8841 4.52C78.6974 4.25333 78.2041 3.84 77.4041 3.28L76.3641 2.52C76.3641 3.88 76.4441 5.98667 76.6041 8.84L76.8441 15.16ZM93.4875 31.68C92.7942 31.68 92.1942 31.4133 91.6875 30.88C91.2075 30.3467 90.9408 29.6933 90.8875 28.92C90.7275 27.8 90.6208 26 90.5675 23.52L90.4875 21.04C90.4875 20.3467 90.2742 19.68 89.8475 19.04C89.4208 18.3733 88.8742 17.9867 88.2075 17.88C88.3942 23.4267 88.4875 27.5333 88.4875 30.2C88.4875 30.9467 88.2208 31.32 87.6875 31.32C87.4742 31.32 87.2608 31.2667 87.0475 31.16C86.5408 30.92 86.3275 30.5333 86.4075 30C86.6208 28.4267 86.7275 26.8667 86.7275 25.32C86.7275 24.2 86.6875 23.0267 86.6075 21.8C86.5808 21.2133 86.5675 20.32 86.5675 19.12C86.5408 18.7467 86.5275 18.16 86.5275 17.36C86.4208 12.9867 86.3008 9.69333 86.1675 7.48C86.0875 6.14667 85.8875 4.44 85.5675 2.36C85.5408 2.25333 85.5275 2.09333 85.5275 1.88C85.5275 1.05333 85.8742 0.573331 86.5675 0.439998C86.9675 0.359999 87.2875 0.479999 87.5275 0.799998C87.7942 1.09333 87.9408 1.48 87.9675 1.96C87.9942 2.30666 88.0208 2.72 88.0475 3.2C88.0742 3.65333 88.0875 4.01333 88.0875 4.28L88.1275 5.6C88.1808 7.14667 88.2075 8.28 88.2075 9V16.12C88.4475 15.56 88.7408 14.6933 89.0875 13.52C89.4342 12.3467 89.7008 11.3467 89.8875 10.52C89.9675 10.0933 90.0475 9.57333 90.1275 8.96C90.2342 8.34667 90.3142 7.88 90.3675 7.56C90.5542 5.85333 90.7942 4.48 91.0875 3.44C91.4342 2.21333 92.0875 1.32 93.0475 0.759998C93.4475 0.519998 93.7808 0.399998 94.0475 0.399998C94.2342 0.399998 94.4875 0.466665 94.8075 0.599998C95.2342 0.786665 95.4475 1.18667 95.4475 1.8C95.4475 2.25333 95.1675 2.54667 94.6075 2.68C93.5408 2.86667 92.8475 3.57333 92.5275 4.8C92.3408 5.54667 92.1675 6.36 92.0075 7.24C91.8208 8.41333 91.6608 9.17333 91.5275 9.52C91.0742 10.9067 90.8208 12.0267 90.7675 12.88C90.6875 13.6 90.5675 14.24 90.4075 14.8C90.2475 15.3333 89.9942 15.7867 89.6475 16.16C90.3142 16.2667 90.8875 16.7333 91.3675 17.56C91.8475 18.3867 92.1542 19.4667 92.2875 20.8C92.3942 21.7333 92.5675 23.76 92.8075 26.88L92.8875 27.76C92.9675 28.4267 93.2875 28.8 93.8475 28.88C94.2742 29.0133 94.5808 29.1867 94.7675 29.4C94.9542 29.5867 95.0475 29.8533 95.0475 30.2C95.0475 30.6267 94.9008 30.9733 94.6075 31.24C94.3142 31.5333 93.9408 31.68 93.4875 31.68ZM106.937 31C106.511 31 106.191 30.92 105.977 30.76C105.791 30.6 105.697 30.3333 105.697 29.96V24.72C105.351 24.48 104.697 24.2667 103.737 24.08C102.777 23.8933 101.871 23.7733 101.017 23.72C100.724 24.28 100.511 24.96 100.377 25.76L100.217 26.56C100.191 26.7467 100.111 27.16 99.9772 27.8C99.8439 28.44 99.6972 29 99.5372 29.48C99.3772 29.9333 99.2172 30.2933 99.0572 30.56C98.0439 30.56 97.4572 30.2933 97.2972 29.76C97.5905 29.3333 97.9239 28.08 98.2972 26L99.6172 18.68C100.204 15.2133 100.737 12.2533 101.217 9.8C101.724 7.34667 102.257 5.29333 102.817 3.64C103.431 1.8 104.017 0.879999 104.577 0.879999C105.137 0.879999 105.564 0.986665 105.857 1.2C105.857 2.26666 106.111 4.84 106.617 8.92C107.151 12.92 107.417 15.6533 107.417 17.12C107.417 18.5333 107.564 20.56 107.857 23.2C108.124 25.8933 108.257 28.04 108.257 29.64C108.257 30.5467 107.817 31 106.937 31ZM104.857 22.4C105.071 22.4 105.337 22.36 105.657 22.28C105.577 21.1067 105.444 19.6533 105.257 17.92C104.644 11.8933 104.337 8.2 104.337 6.84V6.52C104.071 6.78666 103.697 8 103.217 10.16C102.764 12.2933 102.337 14.5867 101.937 17.04C101.537 19.4933 101.324 21.12 101.297 21.92C102.417 22.24 103.604 22.4 104.857 22.4Z" fill="#085500"/>
</svg>
